{"title":"Kaw 2007 DVDRip Xvid BigPerm LKRG","uid":6412359,"size":1109408762,"categoryP":"video","categoryS":"movies","magnet":"?xt=urn:btih:00e2ff65dd3ab0e1dc1615ad8df5a62d3c8da63b&amp;dn=Kaw+2007+DVDRip+Xvid+BigPerm+LKRG&amp;tr=udp%3A%2F%2Ftracker.openbittorrent.com%3A80&amp;tr=udp%3A%2F%2Fopen.demonii.com%3A1337&amp;tr=udp%3A%2F%2Ftracker.coppersurfer.tk%3A6969&amp;tr=udp%3A%2F%2Fexodus.desync.com%3A6969","seeders":0,"leechers":2,"uploader":"hiest","files":-1,"time":1306041448,"description":" ##       ##    ## ########   ######   \n ##       ##   ##  ##     ## ##    ##  \n ##       ##  ##   ##     ## ##        \n ##       #####    ########  ##   #### \n ##       ##  ##   ##   ##   ##    ##  \n ##       ##   ##  ##    ##  ##    ##  \n ######## ##    ## ##     ##  ######   \n\n NFO:\n\n Encoded By .......: BigPerm1828\n Runtime ..........: 1h 32mn\n File Size ........: 1.04 GB\n Resolution .......: 704x396\n Language .........: English\n \n &lt;a href=&quot; http://www.imdb.com/title/tt0491005&quot; rel=&quot;nofollow&quot; target=&quot;_NEW&quot;&gt; http://www.imdb.com/title/tt0491005&lt;/a&gt;\n \n Video\n ID : 0\n Format : MPEG-4 Visual\n Format profile : Advanced Simple@L5\n Format settings, BVOP : Yes\n Format settings, QPel : No\n Format settings, GMC : No warppoints\n Format settings, Matrix : Default (H.263)\n Codec ID : XVID\n Codec ID/Hint : XviD\n Duration : 1h 32mn\n Bit rate : 1 151 Kbps\n Width : 704 pixels\n Height : 396 pixels\n Display aspect ratio : 16:9\n Frame rate : 23.976 fps\n Color space : YUV\n Chroma subsampling : 4:2:0\n Bit depth : 8 bits\n Scan type : Progressive\n Compression mode : Lossy\n Bits/(Pixel*Frame) : 0.172\n Stream size : 761 MiB (72%)\n Writing library : XviD 1.2.1 (UTC 2008-12-04)\n\n Audio\n ID : 1\n Format : AC-3\n Format/Info : Audio Coding 3\n Mode extension : CM (complete main)\n Codec ID : 2000\n Duration : 1h 32mn\n Bit rate mode : Constant\n Bit rate : 448 Kbps\n Channel(s) : 6 channels\n Channel positions : Front: L C R, Side: L R, LFE\n Sampling rate : 48.0 KHz\n Bit depth : 16 bits\n Compression mode : Lossy\n Video delay : 42ms\n Stream size : 296 MiB (28%)\n Alignment : Split accross interleaves\n Interleave, duration : 500 ms (11.99 video frames)\n Interleave, preload duration : 500 ms\n \n\n\n \n\n\n\n ----------------------------------                            \n &lt;a href=&quot; http://thepiratebay.se/user/hiest&quot; rel=&quot;nofollow&quot; target=&quot;_NEW&quot;&gt; http://thepiratebay.se/user/hiest&lt;/a&gt;\n ----------------------------------\n\n\n\n\n\n\n\n Screen Shots:\n\n &lt;a href=&quot; http://leetleech.org/images/18803449083036616529.png&quot; rel=&quot;nofollow&quot; target=&quot;_NEW&quot;&gt; http://leetleech.org/images/18803449083036616529.png&lt;/a&gt;\n\n &lt;a href=&quot; http://leetleech.org/images/35548515707205016998.png&quot; rel=&quot;nofollow&quot; target=&quot;_NEW&quot;&gt; http://leetleech.org/images/35548515707205016998.png&lt;/a&gt;\n\n &lt;a href=&quot; http://leetleech.org/images/45778431404188659279.png&quot; rel=&quot;nofollow&quot; target=&quot;_NEW&quot;&gt; http://leetleech.org/images/45778431404188659279.png&lt;/a&gt;\n\n &lt;a href=&quot; http://leetleech.org/images/44172332510811109444.png&quot; rel=&quot;nofollow&quot; target=&quot;_NEW&quot;&gt; http://leetleech.org/images/44172332510811109444.png&lt;/a&gt;\n\n ##       ##    ## ########   ######   \n ##       ##   ##  ##     ## ##    ##  \n ##       ##  ##   ##     ## ##        \n ##       #####    ########  ##   #### \n ##       ##  ##   ##   ##   ##    ##  \n ##       ##   ##  ##    ##  ##    ##  \n ######## ##    ## ##     ##  ######   ","torrent":{"xt":"urn:btih:00e2ff65dd3ab0e1dc1615ad8df5a62d3c8da63b","amp;dn":"Kaw+2007+DVDRip+Xvid+BigPerm+LKRG","amp;tr":["udp%3A%2F%2Ftracker.openbittorrent.com%3A80","udp%3A%2F%2Fopen.demonii.com%3A1337","udp%3A%2F%2Ftracker.coppersurfer.tk%3A6969","udp%3A%2F%2Fexodus.desync.com%3A6969"],"infoHash":"00e2ff65dd3ab0e1dc1615ad8df5a62d3c8da63b","infoHashBuffer":{"type":"Buffer","data":[0,226,255,101,221,58,176,225,220,22,21,173,141,245,166,45,60,141,166,59]},"announce":[],"urlList":[]}}